<?xml version="1.0" standalone="no"?>
<!DOCTYPE svg PUBLIC "-//W3C//DTD SVG 20010904//EN"
 "http://www.w3.org/TR/2001/REC-SVG-20010904/DTD/svg10.dtd">
<svg version="1.0" xmlns="http://www.w3.org/2000/svg"
 width="800.000000pt" height="800.000000pt" viewBox="0 0 800.000000 800.000000"
 preserveAspectRatio="xMidYMid meet">
<metadata>
Created by potrace 1.14, written by Peter Selinger 2001-2017
</metadata>
<g transform="translate(0.000000,800.000000) scale(0.100000,-0.100000)"
fill="#000000" stroke="none">
<path d="M3837 7964 c-1 -1 -92 -5 -202 -9 -110 -4 -216 -8 -235 -10 -19 -1
-78 -6 -130 -9 -147 -11 -260 -21 -350 -31 -19 -2 -64 -7 -100 -11 -36 -3 -73
-8 -82 -9 -9 -2 -43 -6 -75 -10 -33 -3 -70 -7 -84 -10 -13 -2 -75 -11 -137
-20 -62 -9 -123 -18 -135 -21 -12 -2 -49 -9 -82 -14 -33 -5 -71 -12 -85 -15
-14 -3 -41 -8 -60 -11 -19 -4 -44 -8 -55 -10 -11 -2 -36 -7 -55 -10 -36 -6
-131 -26 -300 -64 -491 -109 -1056 -281 -1561 -475 l-96 -37 23 -49 c13 -27
24 -51 24 -55 0 -11 162 -329 173 -341 9 -9 28 -5 82 18 61 26 270 110 390
156 283 108 875 284 1135 337 45 9 71 15 88 20 9 3 31 8 47 11 17 2 41 7 55
10 150 32 519 92 675 111 22 2 56 6 75 9 70 9 116 14 180 20 36 3 83 8 105 10
22 2 83 7 135 11 52 3 111 7 130 9 86 8 446 17 660 17 330 1 718 -15 925 -37
17 -2 64 -6 105 -10 149 -13 482 -56 613 -80 15 -3 53 -9 85 -15 31 -6 68 -12
82 -15 14 -3 41 -8 60 -11 19 -4 44 -8 55 -11 11 -2 40 -8 65 -13 178 -35 454
-104 653 -161 151 -43 440 -135 472 -149 11 -5 31 -12 45 -16 28 -7 354 -130
385 -145 84 -39 211 -87 217 -81 24 24 225 440 215 447 -17 14 -299 122 -430
166 -34 11 -69 23 -77 26 -8 3 -17 7 -20 7 -3 1 -18 6 -35 13 -38 15 -280 90
-455 142 -122 35 -578 153 -640 164 -14 3 -79 16 -145 30 -66 14 -133 28 -150
31 -16 3 -41 8 -55 11 -14 3 -38 7 -55 10 -16 3 -41 7 -55 10 -14 3 -41 7 -60
10 -19 3 -62 10 -95 16 -33 6 -71 12 -84 14 -21 4 -162 24 -277 40 -16 2 -59
7 -95 11 -35 3 -66 8 -69 9 -3 2 -43 6 -89 10 -46 4 -92 8 -102 10 -11 2 -61
6 -111 10 -51 3 -109 7 -128 10 -36 4 -149 11 -380 21 -122 5 -519 11 -523 8z"/>
<path d="M2987 7184 c-1 -1 -45 -5 -97 -9 -52 -4 -101 -8 -110 -10 -8 -1 -42
-6 -75 -9 -84 -9 -127 -15 -230 -31 -49 -7 -108 -16 -130 -20 -259 -39 -680
-132 -950 -210 -221 -64 -519 -163 -602 -201 -17 -8 -35 -14 -40 -14 -5 0 -28
-9 -51 -20 -22 -11 -45 -20 -50 -20 -5 0 -22 -6 -38 -14 -16 -8 -49 -23 -74
-34 -139 -61 -170 -75 -170 -81 0 -18 117 -158 205 -246 108 -108 249 -220
385 -306 47 -30 95 -60 105 -66 40 -25 142 -78 235 -121 52 -24 103 -48 113
-53 20 -11 23 -5 31 51 16 109 71 227 138 290 93 89 246 159 408 185 19 3 46
8 60 10 14 3 44 7 68 10 23 3 59 7 80 9 185 23 657 36 671 19 7 -7 23 -92 106
-568 13 -71 26 -141 29 -155 3 -14 8 -41 10 -60 3 -19 15 -84 26 -145 11 -60
23 -123 25 -140 3 -16 10 -57 16 -90 9 -54 23 -131 64 -355 8 -41 16 -88 18
-105 5 -29 22 -126 32 -175 3 -14 14 -78 26 -142 11 -64 22 -127 24 -140 5
-22 18 -96 30 -168 7 -36 29 -158 64 -355 11 -60 22 -126 26 -145 3 -19 19
-107 35 -195 16 -88 32 -176 35 -195 4 -19 15 -83 26 -142 10 -60 28 -156 38
-215 11 -60 22 -124 25 -143 4 -19 11 -57 16 -85 5 -27 12 -66 15 -85 3 -19
12 -69 19 -110 8 -41 17 -91 21 -110 3 -19 12 -71 20 -115 8 -44 17 -91 19
-105 3 -14 10 -52 16 -85 15 -90 20 -112 25 -142 3 -16 12 -66 20 -113 8 -47
17 -96 20 -110 5 -24 10 -53 20 -115 3 -16 10 -57 16 -90 6 -33 13 -71 15 -85
3 -14 13 -72 24 -130 11 -58 22 -118 25 -135 3 -16 8 -46 11 -65 4 -29 30
-171 88 -495 3 -16 13 -68 21 -115 8 -47 17 -96 20 -110 2 -13 12 -65 20 -114
9 -50 17 -92 19 -93 2 -2 6 13 9 34 3 21 13 77 21 126 9 48 19 104 22 125 3
20 7 44 9 52 2 8 7 31 10 50 3 19 10 58 15 85 5 28 11 61 14 75 2 14 9 52 14
85 6 33 13 74 16 90 2 17 16 93 30 170 26 141 29 155 46 255 9 53 14 79 25
145 3 17 10 53 15 80 5 28 12 67 16 89 6 40 7 48 23 131 6 28 13 66 15 85 7
46 15 90 21 115 4 20 52 295 61 350 2 17 11 64 19 105 8 41 16 86 19 100 2 14
7 41 10 60 3 19 8 46 10 60 2 14 9 52 15 85 6 33 14 74 16 90 3 17 13 68 21
115 9 47 18 96 20 110 3 14 7 36 9 50 3 14 7 43 11 65 3 22 12 72 19 110 8 39
16 86 19 105 3 19 8 49 11 65 40 216 110 611 120 675 5 28 15 84 20 110 1 3 5
25 9 50 5 25 10 54 12 65 5 26 22 121 28 160 3 17 12 68 21 115 8 47 18 100
21 119 3 18 8 43 10 55 2 11 7 37 10 56 3 19 19 107 34 195 16 88 32 176 35
195 5 30 21 121 40 225 3 17 14 82 25 145 24 134 54 301 75 415 8 44 17 94 20
110 2 17 7 41 9 55 3 14 7 41 10 60 3 19 12 65 19 102 8 37 12 70 8 74 -6 7
535 -3 579 -10 14 -3 57 -7 95 -11 39 -3 95 -10 125 -15 30 -5 73 -12 95 -16
22 -3 77 -17 123 -30 245 -71 376 -203 419 -423 l16 -79 31 11 c75 26 348 173
464 251 235 157 390 297 526 476 l49 65 -74 33 c-111 51 -397 164 -544 215
-126 44 -439 143 -480 152 -11 2 -99 24 -195 49 -145 37 -360 84 -505 111 -43
8 -275 46 -305 50 -128 17 -276 36 -325 41 -33 3 -73 7 -90 9 -87 11 -305 17
-305 8 0 -5 -8 -18 -18 -29 -9 -10 -47 -55 -83 -99 -36 -44 -119 -145 -184
-225 -65 -80 -121 -147 -124 -150 -4 -3 -33 -39 -66 -80 -83 -104 -87 -110
-110 -135 -11 -13 -54 -65 -95 -116 -41 -51 -87 -106 -101 -123 l-26 -30 -21
25 c-20 23 -176 213 -209 254 -9 11 -28 34 -42 50 -14 17 -42 51 -61 75 -30
37 -144 176 -275 335 -19 22 -50 60 -70 85 -20 25 -53 65 -73 89 -21 24 -43
53 -50 63 -12 17 -25 19 -108 17 -52 -2 -96 -4 -97 -5z"/>
</g>
</svg>
